<svg width="24" height="24" viewBox="0 0 24 24" fill="none" xmlns="http://www.w3.org/2000/svg">
<path d="M5.33334 8.26667H10C10.2889 8.26667 10.5276 8.17245 10.716 7.984C10.9044 7.79556 10.9991 7.55645 11 7.26667C11 6.97778 10.9053 6.73911 10.716 6.55067C10.5267 6.36223 10.288 6.26756 10 6.26667H5.33334C5.04445 6.26667 4.80578 6.36134 4.61734 6.55067C4.42889 6.74 4.33422 6.97867 4.33334 7.26667C4.33334 7.55556 4.428 7.79467 4.61734 7.984C4.80667 8.17334 5.04534 8.26756 5.33334 8.26667ZM14.3333 19H19C19.2889 19 19.5276 18.9053 19.716 18.716C19.9044 18.5267 19.9991 18.288 20 18C20 17.7111 19.9053 17.4724 19.716 17.284C19.5267 17.0956 19.288 17.0009 19 17H14.3333C14.0444 17 13.8058 17.0947 13.6173 17.284C13.4289 17.4733 13.3342 17.712 13.3333 18C13.3333 18.2889 13.428 18.5276 13.6173 18.716C13.8067 18.9044 14.0453 18.9991 14.3333 19ZM14.3333 15.6667H19C19.2889 15.6667 19.5276 15.572 19.716 15.3827C19.9044 15.1933 19.9991 14.9547 20 14.6667C20 14.3778 19.9053 14.1391 19.716 13.9507C19.5267 13.7622 19.288 13.6676 19 13.6667H14.3333C14.0444 13.6667 13.8058 13.7613 13.6173 13.9507C13.4289 14.14 13.3342 14.3787 13.3333 14.6667C13.3333 14.9556 13.428 15.1942 13.6173 15.3827C13.8067 15.5711 14.0453 15.6658 14.3333 15.6667ZM7.66667 20C7.95556 20 8.19422 19.9053 8.38267 19.716C8.57111 19.5267 8.66578 19.288 8.66667 19V17.3333H10.3333C10.6222 17.3333 10.8609 17.2387 11.0493 17.0493C11.2378 16.86 11.3324 16.6213 11.3333 16.3333C11.3333 16.0444 11.2387 15.8058 11.0493 15.6173C10.86 15.4289 10.6213 15.3342 10.3333 15.3333H8.66667V13.6667C8.66667 13.3778 8.572 13.1391 8.38267 12.9507C8.19334 12.7622 7.95467 12.6676 7.66667 12.6667C7.37778 12.6667 7.13911 12.7613 6.95067 12.9507C6.76223 13.14 6.66756 13.3787 6.66667 13.6667V15.3333H5C4.71111 15.3333 4.47245 15.428 4.284 15.6173C4.09556 15.8067 4.00089 16.0453 4 16.3333C4 16.6222 4.09467 16.8609 4.284 17.0493C4.47334 17.2378 4.712 17.3324 5 17.3333H6.66667V19C6.66667 19.2889 6.76134 19.5276 6.95067 19.716C7.14 19.9044 7.37867 19.9991 7.66667 20ZM14.1 9.9C14.3 10.1 14.5333 10.2 14.8 10.2C15.0667 10.2 15.3 10.1 15.5 9.9L16.6667 8.73334L17.8667 9.93334C18.0444 10.1111 18.2667 10.2 18.5333 10.2C18.8 10.2 19.0333 10.1 19.2333 9.9C19.4111 9.72223 19.5 9.49422 19.5 9.216C19.5 8.93778 19.4111 8.69911 19.2333 8.5L18.0667 7.26667L19.2667 6.06667C19.4444 5.88889 19.5333 5.66667 19.5333 5.4C19.5333 5.13334 19.4333 4.9 19.2333 4.7C19.0333 4.5 18.8 4.4 18.5333 4.4C18.2667 4.4 18.0333 4.5 17.8333 4.7L16.6667 5.86667L15.4667 4.66667C15.2889 4.48889 15.0667 4.4 14.8 4.4C14.5333 4.4 14.3 4.5 14.1 4.7C13.9 4.9 13.8 5.13334 13.8 5.4C13.8 5.66667 13.9 5.9 14.1 6.1L15.2667 7.26667L14.0667 8.5C13.8889 8.7 13.8 8.93334 13.8 9.2C13.8 9.46667 13.9 9.7 14.1 9.9ZM2.66667 24C1.93334 24 1.30534 23.7387 0.782669 23.216C0.260002 22.6933 -0.000886625 22.0658 2.26373e-06 21.3333V2.66667C2.26373e-06 1.93334 0.261336 1.30534 0.784002 0.782669C1.30667 0.260002 1.93422 -0.000886625 2.66667 2.26373e-06H21.3333C22.0667 2.26373e-06 22.6947 0.261336 23.2173 0.784002C23.74 1.30667 24.0009 1.93422 24 2.66667V21.3333C24 22.0667 23.7387 22.6947 23.216 23.2173C22.6933 23.74 22.0658 24.0009 21.3333 24H2.66667Z" fill="#87AC5F"/>
</svg>
