<svg width="60" height="60" viewBox="0 0 60 60" fill="none" xmlns="http://www.w3.org/2000/svg">
<g clip-path="url(#clip0_3_722)">
<rect width="60" height="60" fill="#F4F7FB"/>
<path d="M21.5033 36.4556V23.5442H12.6144L10 30.1265V36.4556H21.5033Z" fill="#87AC5F" stroke="#87AC5F" stroke-linecap="round" stroke-linejoin="round"/>
<path d="M19.6735 28.8607V24.3037H13.399L12.0918 28.8607H19.6735Z" fill="#FDFDFF" stroke="#FDFDFF" stroke-linecap="round" stroke-linejoin="round"/>
<path d="M22.549 35.443V20H48.9542V32.6582H50V34.6835H48.9542V35.443H22.549Z" fill="#87AC5F" stroke="#87AC5F" stroke-linecap="round" stroke-linejoin="round"/>
<path d="M23.334 31.8988V20.7595H47.9091V31.8988H23.334Z" fill="#FDFDFF" fill-opacity="0.6"/>
<ellipse cx="43.7246" cy="36.4557" rx="3.66013" ry="3.5443" fill="#87AC5F"/>
<ellipse cx="27.5156" cy="36.4557" rx="3.66013" ry="3.5443" fill="#87AC5F"/>
<ellipse cx="17.0586" cy="36.4557" rx="3.66013" ry="3.5443" fill="#87AC5F"/>
<ellipse cx="43.726" cy="36.4557" rx="2.35294" ry="2.27848" fill="#FDFDFF"/>
<ellipse cx="27.517" cy="36.4557" rx="2.35294" ry="2.27848" fill="#FDFDFF"/>
<ellipse cx="17.058" cy="36.4557" rx="2.35294" ry="2.27848" fill="#FDFDFF"/>
<path d="M46.8627 30.1265H25.1633C24.1176 27.8481 26.732 26.329 27.5163 26.329H30.915L30.9162 26.3282C31.7018 25.8211 34.0524 24.3037 34.3137 24.3037H39.5424C41.6339 24.3037 43.7254 25.6539 44.5097 26.329C47.0195 25.7215 47.1241 28.6075 46.8627 30.1265Z" fill="#87AC5F" stroke="#87AC5F" stroke-linecap="round"/>
<path d="M36.1439 26.8354V25.0632H34.3139L31.9609 26.8354H36.1439Z" fill="#FDFDFF" fill-opacity="0.6"/>
<path d="M36.9277 26.8354V25.0632H40.065L41.3722 26.8354H36.9277Z" fill="#FDFDFF" fill-opacity="0.6"/>
<ellipse cx="28.5622" cy="29.8735" rx="2.0915" ry="2.02532" fill="#87AC5F"/>
<ellipse cx="42.4177" cy="29.6203" rx="2.0915" ry="2.02532" fill="#87AC5F"/>
</g>
<defs>
<clipPath id="clip0_3_722">
<rect width="60" height="60" fill="white"/>
</clipPath>
</defs>
</svg>
