<svg width="60" height="60" viewBox="0 0 60 60" fill="none" xmlns="http://www.w3.org/2000/svg">
<g clip-path="url(#clip0_3_710)">
<rect width="60" height="60" fill="#F4F7FB"/>
<ellipse cx="45.0986" cy="33.408" rx="3.85487" ry="4.59207" fill="#87AC5F"/>
<path d="M40.4184 35.704C31.387 33.6047 22.888 35.2666 19.7674 36.36C21.1441 28.1599 17.5646 27.5038 15.3618 27.5038C12.6083 27.5038 11.2316 29.5812 10.6809 31.1119C10.6809 32.4239 10.2954 35.048 10.9563 35.048C11.2316 35.048 11.7823 35.9226 11.5069 36.36H6V34.3919H7.37674V31.1119H10.6809V29.7999H6C10.8461 25.6014 18.1153 25.8638 21.1441 26.5198L28.3031 22.5838C35.1318 21.2717 39.2253 22.4744 40.4184 23.2398C42.8415 24.027 50.2392 25.7545 53.6351 26.5198C54.296 27.307 53.9105 28.1598 53.6351 28.4879C50.6063 31.7679 51.157 33.7359 51.157 34.3919C51.157 34.9167 50.2392 35.0479 49.7803 35.0479C50.0556 32.5332 49.4498 27.5038 44.824 27.5038C40.1982 27.5038 39.9595 32.9706 40.4184 35.704Z" fill="#87AC5F"/>
<path d="M10.6809 31.1119V29.7999C9.35924 29.7999 7.00961 29.7999 6 29.7999C10.8461 25.6014 18.1153 25.8638 21.1441 26.5198C24.0077 24.9454 27.11 23.2398 28.3031 22.5838C35.1318 21.2717 39.2253 22.4744 40.4184 23.2398C42.8415 24.027 50.2392 25.7545 53.6351 26.5198C54.296 27.307 53.9105 28.1598 53.6351 28.4879C50.6063 31.7679 51.157 33.7359 51.157 34.3919C51.157 34.9167 50.2392 35.0479 49.7803 35.0479C50.0556 32.5332 49.4498 27.5038 44.824 27.5038C40.1982 27.5038 39.9595 32.9706 40.4184 35.704C31.387 33.6047 22.888 35.2666 19.7674 36.36C21.1441 28.1599 17.5646 27.5038 15.3618 27.5038C12.6083 27.5038 11.2316 29.5812 10.6809 31.1119ZM10.6809 31.1119H7.37674V34.3919H6V36.36H11.507C11.7823 35.9226 11.2316 35.048 10.9563 35.048C10.2954 35.048 10.6809 32.4239 10.6809 31.1119Z" stroke="#87AC5F" stroke-linecap="round" stroke-linejoin="round"/>
<path d="M28.8542 23.5676L23.0719 26.8477H36.5639C38.1059 25.2733 37.2064 24.005 36.5639 23.5676H28.8542Z" fill="#FDFDFF" stroke="#FDFDFF" stroke-linecap="round" stroke-linejoin="round"/>
<ellipse cx="15.3611" cy="33.408" rx="3.85487" ry="4.59207" fill="#87AC5F"/>
<path d="M47 16L47.449 17.382H48.9021L47.7265 18.2361L48.1756 19.618L47 18.7639L45.8244 19.618L46.2735 18.2361L45.0979 17.382H46.551L47 16Z" fill="#072765"/>
<path d="M49 20L49.2245 20.691H49.9511L49.3633 21.118L49.5878 21.809L49 21.382L48.4122 21.809L48.6367 21.118L48.0489 20.691H48.7755L49 20Z" fill="#072765"/>
<path d="M50 14L50.2245 14.691H50.9511L50.3633 15.118L50.5878 15.809L50 15.382L49.4122 15.809L49.6367 15.118L49.0489 14.691H49.7755L50 14Z" fill="#072765"/>
</g>
<defs>
<clipPath id="clip0_3_710">
<rect width="60" height="60" fill="white"/>
</clipPath>
</defs>
</svg>
