<svg width="60" height="60" viewBox="0 0 60 60" fill="none" xmlns="http://www.w3.org/2000/svg">
<g clip-path="url(#clip0_3_743)">
<rect width="60" height="60" fill="#F4F7FB"/>
<g clip-path="url(#clip1_3_743)">
<path d="M44.2594 37.55C42.6281 35.293 39 29.8227 39 26.75C39 23.022 41.6862 20 45 20C48.3125 20 51 23.022 51 26.75C51 29.8227 47.3438 35.293 45.7406 37.55C45.3562 38.0879 44.6437 38.0879 44.2594 37.55Z" fill="#87AC5F"/>
<ellipse cx="45" cy="26.3" rx="3.42857" ry="3.6" fill="#FDFDFF"/>
</g>
<path d="M20.7227 38V34.707H24.0156V38H20.7227ZM27.4023 38V34.707H30.6953V38H27.4023ZM34.082 38V34.707H37.375V38H34.082Z" fill="#072765"/>
<g clip-path="url(#clip2_3_743)">
<path d="M14.2594 37.55C12.6281 35.293 9 29.8227 9 26.75C9 23.022 11.6862 20 15 20C18.3125 20 21 23.022 21 26.75C21 29.8227 17.3438 35.293 15.7406 37.55C15.3562 38.0879 14.6437 38.0879 14.2594 37.55Z" fill="#87AC5F"/>
<ellipse cx="15" cy="26.3" rx="3.42857" ry="3.6" fill="#FDFDFF"/>
</g>
</g>
<defs>
<clipPath id="clip0_3_743">
<rect width="60" height="60" fill="white"/>
</clipPath>
<clipPath id="clip1_3_743">
<rect width="12" height="18" fill="white" transform="translate(39 20)"/>
</clipPath>
<clipPath id="clip2_3_743">
<rect width="12" height="18" fill="white" transform="translate(9 20)"/>
</clipPath>
</defs>
</svg>
